<svg width="39" height="34" viewBox="0 0 39 34" fill="none" xmlns="http://www.w3.org/2000/svg">
<path d="M4.68141 7.5556C4.91524 8.03768 4.94024 8.50826 4.73741 8.60668C4.53441 8.7051 4.18024 8.39426 3.94641 7.91226C3.71257 7.43018 3.68749 6.95968 3.89041 6.86118C4.09332 6.76276 4.44749 7.07368 4.68141 7.5556ZM10.2147 32.6279C8.26207 29.3663 8.97516 26.0653 10.1774 25.7868C10.1779 25.787 10.1782 25.7874 10.1786 25.7877C11.2857 26.6075 12.0487 27.3718 12.2853 27.8885C11.0622 28.2574 10.3209 29.9544 10.2147 32.6279ZM6.40557 24.4126C6.27324 25.3278 6.55049 26.9583 7.12791 28.5621C7.57957 29.8167 8.59107 32.0973 10.2901 33.2762L10.6064 33.4958L10.6107 33.1108C10.6392 30.5833 11.2181 28.8681 12.1819 28.3715C20.0729 30.9703 31.6566 26.3968 33.7417 23.7348C31.929 25.2078 19.9958 29.3919 15.5972 26.1139C11.5893 23.1271 19.7071 20.2764 24.3532 23.944C22.2089 21.3403 20.5627 20.6063 11.2574 19.2811C5.59024 18.4739 0.165738 6.59593 3.22474 5.30035C6.28357 4.0046 11.0871 12.1177 11.1042 15.4943C11.5297 14.3201 11.9467 11.5887 9.21899 7.62793C7.69357 6.16401 6.38749 4.93068 5.13082 3.46226C3.53099 1.59301 2.26916 -0.684653 0.773991 0.19468C0.195407 0.535097 1.03382 3.35076 0.331572 6.0491C-0.804178 10.4128 0.921323 18.6077 6.40557 24.4126M32.8667 23.1399C33.6262 20.2028 36.1136 20.1024 38.1563 19.0266C38.6912 19.6638 35.5025 22.1626 35.4698 23.2109C35.4631 23.4269 35.6844 23.5523 35.3134 23.9374C34.1179 25.1789 37.07 27.2298 36.6654 28.5908C34.8445 27.239 33.2718 27.2265 32.8028 24.9013C33.4665 26.2865 35.2817 27.0225 35.1989 26.4569C35.1162 25.8914 33.6704 24.7388 33.9601 23.442C34.2497 22.1453 36.605 20.7026 36.5775 20.5232C35.3497 20.7991 33.5564 21.7328 32.8667 23.1399M20.101 15.8131C19.3804 15.8131 18.5949 15.9296 17.902 16.0323C17.3282 16.1174 16.7861 16.1978 16.3776 16.1978C16.2346 16.1978 16.1168 16.1877 16.0167 16.1683C15.7677 15.9575 15.4622 15.5616 15.2907 14.8306C14.8674 13.0256 20.5317 14.6513 21.1686 15.8513C21.1763 15.881 21.1819 15.9076 21.1847 15.9288C20.8737 15.851 20.5177 15.8131 20.101 15.8131M11.4472 10.0643C11.5964 10.2241 11.7581 10.3971 11.9291 10.5801C12.0998 10.7635 12.2758 10.9588 12.4597 11.1595C12.5505 11.2608 12.6469 11.3604 12.7367 11.4672C12.8276 11.5728 12.9195 11.6799 13.0121 11.7878C13.1045 11.8954 13.1977 12.0038 13.2912 12.1128C13.3819 12.2239 13.469 12.3386 13.5581 12.4511C13.6465 12.5641 13.735 12.677 13.8231 12.7894C13.8667 12.846 13.9118 12.9008 13.9538 12.9581C13.9582 12.9643 13.9626 12.9705 13.9669 12.9767C13.1189 13.0332 12.4902 13.1857 12.3126 13.3841C11.5907 14.1899 15.0297 16.5088 16.3603 16.4019C16.3662 16.4019 16.3717 16.402 16.3776 16.402C16.3898 16.402 16.4026 16.4018 16.4151 16.4016C16.4212 16.4092 16.4269 16.4163 16.4334 16.4244C16.5257 16.5378 16.6571 16.7072 16.8316 16.9166C16.921 17.0194 17.0201 17.1333 17.1279 17.2572C17.1818 17.3192 17.238 17.3836 17.2962 17.4505C17.3568 17.5152 17.4197 17.582 17.4846 17.6512C17.5496 17.7203 17.6167 17.7914 17.6858 17.8647C17.7556 17.9374 17.8242 18.0152 17.9015 18.0883C18.0531 18.2373 18.2127 18.3937 18.3791 18.5572C18.5514 18.7139 18.731 18.8772 18.9169 19.0464C19.1072 19.2101 19.3069 19.3762 19.5104 19.5482C19.7213 19.7117 19.9346 19.8835 20.1586 20.0512C20.2718 20.1333 20.3862 20.2161 20.5019 20.2999C20.5597 20.3418 20.6177 20.3838 20.6761 20.4261C20.7357 20.4663 20.7957 20.5066 20.856 20.5472C20.9766 20.6281 21.0981 20.7097 21.2205 20.7918C21.343 20.8738 21.4712 20.9493 21.5974 21.0289C21.6608 21.0682 21.7245 21.1077 21.7882 21.1473L21.8841 21.2067L21.9822 21.2631C22.1131 21.3381 22.2447 21.4135 22.3767 21.4893C22.5076 21.5672 22.6449 21.6347 22.7797 21.7073C22.8475 21.743 22.9153 21.7789 22.9833 21.8148C23.051 21.8509 23.119 21.8868 23.1887 21.9194C23.3272 21.9865 23.466 22.0538 23.6049 22.1212L23.7091 22.1716L23.8149 22.2186L24.0267 22.3125C24.3072 22.4417 24.5957 22.5525 24.8804 22.668C25.0236 22.7238 25.1687 22.7739 25.3122 22.8267C25.384 22.8528 25.4557 22.8788 25.5274 22.9048C25.5998 22.9284 25.6722 22.9519 25.7443 22.9754C26.3194 23.1704 26.8986 23.3211 27.4619 23.4475C27.6032 23.477 27.7434 23.5063 27.8822 23.5353C28.0221 23.5592 28.1606 23.5829 28.2975 23.6063C28.3661 23.6173 28.4337 23.6311 28.5021 23.6393C28.5702 23.6483 28.638 23.657 28.7052 23.6658C28.7726 23.6746 28.8394 23.6833 28.9059 23.6919C28.9723 23.701 29.0383 23.7093 29.1044 23.714C29.2362 23.7258 29.366 23.7373 29.494 23.7486C29.6219 23.76 29.7487 23.7619 29.8728 23.7688C29.935 23.7718 29.9966 23.7745 30.0577 23.7774C30.1187 23.7798 30.1794 23.7782 30.2393 23.7788C30.3593 23.779 30.4771 23.7791 30.5923 23.7792C30.7076 23.7739 30.8203 23.7687 30.9307 23.7635C30.9857 23.7608 31.0402 23.7582 31.0939 23.7554C31.1476 23.7501 31.2006 23.7449 31.2528 23.7398C31.3573 23.7296 31.4592 23.7197 31.5582 23.7098C31.6565 23.6947 31.7521 23.6801 31.8446 23.6658C31.8908 23.6588 31.9362 23.6517 31.981 23.6448C32.0258 23.6385 32.069 23.6268 32.1118 23.6182C32.1972 23.5998 32.2796 23.582 32.3587 23.565C32.4382 23.5501 32.5123 23.5258 32.5837 23.5063C32.6551 23.4858 32.7231 23.4665 32.7875 23.4481C33.0422 23.3626 33.2404 23.2909 33.3687 23.2269C33.4991 23.1673 33.5686 23.1356 33.5686 23.1356C33.5686 23.1356 33.4979 23.1646 33.3652 23.2188C33.2343 23.2779 33.0337 23.3417 32.7783 23.4165C32.7135 23.4323 32.6452 23.4489 32.5737 23.4663C32.5019 23.483 32.4277 23.5042 32.3481 23.5158C32.269 23.5297 32.1866 23.5442 32.1012 23.5591C32.0584 23.5658 32.0154 23.5758 31.9707 23.5803C31.9261 23.5853 31.8807 23.5905 31.8346 23.5958C31.7425 23.6063 31.6474 23.6173 31.5496 23.6283C31.4512 23.6341 31.35 23.6402 31.2462 23.6462C31.1943 23.6493 31.1418 23.6523 31.0887 23.6555C31.0353 23.656 30.9813 23.6565 30.9267 23.6572C30.8177 23.6578 30.706 23.6588 30.592 23.6595C30.4782 23.6549 30.3618 23.6503 30.2432 23.6454C30.1841 23.6425 30.1242 23.6419 30.064 23.637C30.0038 23.6319 29.9432 23.6268 29.8819 23.6215C29.7595 23.6098 29.6347 23.6032 29.5089 23.5869C29.3832 23.5708 29.2554 23.5543 29.1259 23.5378C29.0612 23.5305 28.9962 23.5198 28.9312 23.5083C28.8659 23.4971 28.8003 23.486 28.7343 23.4748C28.6683 23.4635 28.6019 23.4523 28.5352 23.4409C28.4683 23.4302 28.402 23.4138 28.3348 23.4004C28.2008 23.372 28.0654 23.3434 27.9287 23.3145C27.7931 23.2807 27.6562 23.2463 27.5182 23.2118C26.9684 23.0656 26.4052 22.8954 25.8477 22.6817C25.7777 22.6558 25.7076 22.6298 25.6374 22.6039C25.5681 22.5758 25.4987 22.5473 25.4291 22.5189C25.2903 22.4614 25.1499 22.4069 25.0116 22.3468C24.7365 22.2223 24.4582 22.1028 24.1883 21.9653L23.9845 21.8653L23.8827 21.8154L23.7827 21.7619C23.6494 21.6907 23.5162 21.6195 23.3832 21.5485C23.3163 21.5139 23.2511 21.4763 23.1862 21.4383C23.1212 21.4006 23.0563 21.3629 22.9914 21.3254C22.8624 21.2493 22.7309 21.1783 22.606 21.097C22.48 21.018 22.3545 20.9393 22.2296 20.8611L22.136 20.8025L22.0447 20.7409C21.984 20.6997 21.9235 20.6588 21.8632 20.6179C21.7431 20.5353 21.6212 20.4573 21.505 20.3728C21.3889 20.2879 21.2736 20.2039 21.1593 20.1204C21.1022 20.0787 21.0454 20.0373 20.9887 19.9958C20.9337 19.9526 20.8788 19.9093 20.8242 19.8663C20.715 19.7807 20.6069 19.6957 20.4999 19.6115C20.2887 19.4402 20.0882 19.2651 19.8898 19.0988C19.6989 18.9238 19.5118 18.7555 19.3337 18.5898C19.1602 18.4193 18.9927 18.2544 18.8318 18.0961C18.6772 17.932 18.5291 17.7746 18.3882 17.625C18.3163 17.5517 18.2531 17.4738 18.1885 17.4011C18.1247 17.3277 18.0626 17.2566 18.0025 17.1875C17.9425 17.1184 17.8845 17.0517 17.8285 16.9871C17.775 16.9204 17.7233 16.8562 17.6737 16.7946C17.5746 16.6713 17.4835 16.5579 17.4013 16.4557C17.3661 16.4098 17.3332 16.3664 17.3017 16.3245C17.5042 16.2978 17.7158 16.2664 17.9319 16.2344C18.6179 16.1326 19.3954 16.0173 20.101 16.0173C20.5473 16.0173 20.9185 16.062 21.2358 16.154L21.297 16.1718L21.3398 16.1246C21.4503 16.0031 21.3571 15.7371 21.2917 15.5893C21.1728 15.3206 19.9967 12.9644 15.3572 12.9643H15.3571C15.3268 12.9643 15.2958 12.9652 15.2653 12.9653C15.1574 12.9607 15.051 12.9573 14.9459 12.9553C14.8503 12.8529 14.7536 12.7493 14.6561 12.6449C14.6064 12.5917 14.5564 12.5382 14.5064 12.4848C14.4553 12.432 14.4011 12.3817 14.3484 12.3299C14.2425 12.2274 14.1361 12.1243 14.0297 12.0211C13.923 11.9188 13.8183 11.8146 13.7107 11.7145C13.6007 11.6172 13.4912 11.5203 13.3825 11.4238C13.274 11.3281 13.1664 11.2328 13.0602 11.1388C12.9547 11.0437 12.8449 10.9577 12.7402 10.8688C12.5288 10.6938 12.3258 10.5227 12.1316 10.3643C11.9371 10.2061 11.7532 10.0566 11.5835 9.91868C11.2438 9.64293 10.9646 9.40993 10.767 9.24835C10.5701 9.0861 10.4574 8.99326 10.4574 8.99326C10.4574 8.99326 10.5564 9.10043 10.7292 9.28793C10.9026 9.47501 11.1485 9.74501 11.4472 10.0643" fill="#7891A4"/>
</svg>
