<svg width="28" height="28" viewBox="0 0 28 28" fill="none" xmlns="http://www.w3.org/2000/svg">

<defs>
<linearGradient id="paint0_linear_1603_5982" x1="14" y1="0" x2="14" y2="28" gradientUnits="userSpaceOnUse">
<stop stop-color="#174299"/>
<stop offset="1" stop-color="#001E59"/>
</linearGradient>
<radialGradient id="paint1_radial_1603_5982" cx="0" cy="0" r="1" gradientUnits="userSpaceOnUse" gradientTransform="translate(6.06667 21.9334) rotate(-90) scale(17.2667)">
<stop offset="0.770277" stop-color="#FF4000"/>
<stop offset="1" stop-color="#8754C9"/>
</radialGradient>
<linearGradient id="paint2_linear_1603_5982" x1="19.3667" y1="22.6333" x2="23.3334" y2="22.6333" gradientUnits="userSpaceOnUse">
<stop stop-color="#FF4000"/>
<stop offset="1" stop-color="#8754C9"/>
</linearGradient>
<linearGradient id="paint3_linear_1603_5982" x1="5.36667" y1="4.66669" x2="5.36667" y2="8.63335" gradientUnits="userSpaceOnUse">
<stop stop-color="#8754C9"/>
<stop offset="1" stop-color="#FF4000"/>
</linearGradient>
<radialGradient id="paint4_radial_1603_5982" cx="0" cy="0" r="1" gradientUnits="userSpaceOnUse" gradientTransform="translate(6.06671 21.9334) rotate(-90) scale(13.5333)">
<stop offset="0.723929" stop-color="#FFF700"/>
<stop offset="1" stop-color="#FF9901"/>
</radialGradient>
<linearGradient id="paint5_linear_1603_5982" x1="15.8668" y1="22.6333" x2="19.6001" y2="22.6333" gradientUnits="userSpaceOnUse">
<stop stop-color="#FFF700"/>
<stop offset="1" stop-color="#FF9901"/>
</linearGradient>
<linearGradient id="paint6_linear_1603_5982" x1="5.36671" y1="12.1334" x2="5.36671" y2="8.40002" gradientUnits="userSpaceOnUse">
<stop stop-color="#FFF700"/>
<stop offset="1" stop-color="#FF9901"/>
</linearGradient>
<radialGradient id="paint7_radial_1603_5982" cx="0" cy="0" r="1" gradientUnits="userSpaceOnUse" gradientTransform="translate(6.06671 21.9334) rotate(-90) scale(9.8)">
<stop offset="0.59513" stop-color="#00AAFF"/>
<stop offset="1" stop-color="#01DA40"/>
</radialGradient>
<radialGradient id="paint8_radial_1603_5982" cx="0" cy="0" r="1" gradientUnits="userSpaceOnUse" gradientTransform="translate(11.9001 22.6333) scale(3.96667 10.5778)">
<stop stop-color="#00AAFF"/>
<stop offset="1" stop-color="#01DA40"/>
</radialGradient>
<radialGradient id="paint9_radial_1603_5982" cx="0" cy="0" r="1" gradientUnits="userSpaceOnUse" gradientTransform="translate(5.36671 16.1) rotate(-90) scale(3.96667 75.2197)">
<stop stop-color="#00AAFF"/>
<stop offset="1" stop-color="#01DA40"/>
</radialGradient>
</defs>
<path d="M0 14C0 6.26801 6.26801 0 14 0V0C21.732 0 28 6.26801 28 14V14C28 21.732 21.732 28 14 28V28C6.26801 28 0 21.732 0 14V14Z" fill="url(#paint0_linear_1603_5982)"/>
<path d="M4.66667 8.86669H6.06667C13.2832 8.86669 19.1333 14.7168 19.1333 21.9334V23.3334H21.9333C22.7065 23.3334 23.3333 22.7066 23.3333 21.9334C23.3333 12.3972 15.6028 4.66669 6.06667 4.66669C5.29347 4.66669 4.66667 5.29349 4.66667 6.06669V8.86669Z" fill="url(#paint1_radial_1603_5982)"/>
<path d="M19.6 21.9333H23.3334C23.3334 22.7065 22.7066 23.3333 21.9334 23.3333H19.6V21.9333Z" fill="url(#paint2_linear_1603_5982)"/>
<path d="M6.06667 4.66669L6.06667 8.40002H4.66667L4.66667 6.06669C4.66667 5.29349 5.29347 4.66669 6.06667 4.66669Z" fill="url(#paint3_linear_1603_5982)"/>
<path d="M4.66671 8.40002H6.06671C13.541 8.40002 19.6 14.4591 19.6 21.9334V23.3334H15.4V21.9334C15.4 16.7787 11.2214 12.6 6.06671 12.6H4.66671V8.40002Z" fill="url(#paint4_radial_1603_5982)"/>
<path d="M15.8668 21.9333H19.6001V23.3333H15.8668V21.9333Z" fill="url(#paint5_linear_1603_5982)"/>
<path d="M4.66671 12.1334L4.66671 8.40002L6.06671 8.40002L6.06671 12.1334H4.66671Z" fill="url(#paint6_linear_1603_5982)"/>
<path d="M4.66671 14.4667C4.66671 15.2399 5.29351 15.8667 6.06671 15.8667C9.41724 15.8667 12.1334 18.5828 12.1334 21.9334C12.1334 22.7066 12.7602 23.3334 13.5334 23.3334H15.8667V21.9334C15.8667 16.521 11.4791 12.1334 6.06671 12.1334H4.66671V14.4667Z" fill="url(#paint7_radial_1603_5982)"/>
<path d="M12.1334 21.9333H15.8668V23.3333H13.5334C12.7602 23.3333 12.1334 22.7065 12.1334 21.9333Z" fill="url(#paint8_radial_1603_5982)"/>
<path d="M6.06671 15.8667C5.29351 15.8667 4.66671 15.2399 4.66671 14.4667L4.66671 12.1334L6.06671 12.1334L6.06671 15.8667Z" fill="url(#paint9_radial_1603_5982)"/>
</svg>
