<svg width="30" height="30" viewBox="0 0 30 30" fill="none" xmlns="http://www.w3.org/2000/svg">
<rect width="30" height="30" rx="15" fill="#3B99FC"/>
<g clip-path="url(#clip0_1606_11565)">
<path d="M9.5 9.5H13.625V13.625H9.5V9.5ZM20.5 9.5V13.625H16.375V9.5H20.5ZM16.375 17.0625H17.75V15.6875H16.375V14.3125H17.75V15.6875H19.125V14.3125H20.5V15.6875H19.125V17.0625H20.5V19.125H19.125V20.5H17.75V19.125H15.6875V20.5H14.3125V17.75H16.375V17.0625ZM17.75 17.0625V19.125H19.125V17.0625H17.75ZM9.5 20.5V16.375H13.625V20.5H9.5ZM10.875 10.875V12.25H12.25V10.875H10.875ZM17.75 10.875V12.25H19.125V10.875H17.75ZM10.875 17.75V19.125H12.25V17.75H10.875ZM9.5 14.3125H10.875V15.6875H9.5V14.3125ZM12.9375 14.3125H15.6875V17.0625H14.3125V15.6875H12.9375V14.3125ZM14.3125 10.875H15.6875V13.625H14.3125V10.875ZM8.125 8.125V10.875H6.75V8.125C6.75 7.76033 6.89487 7.41059 7.15273 7.15273C7.41059 6.89487 7.76033 6.75 8.125 6.75H10.875V8.125H8.125ZM21.875 6.75C22.2397 6.75 22.5894 6.89487 22.8473 7.15273C23.1051 7.41059 23.25 7.76033 23.25 8.125V10.875H21.875V8.125H19.125V6.75H21.875ZM8.125 19.125V21.875H10.875V23.25H8.125C7.76033 23.25 7.41059 23.1051 7.15273 22.8473C6.89487 22.5894 6.75 22.2397 6.75 21.875V19.125H8.125ZM21.875 21.875V19.125H23.25V21.875C23.25 22.2397 23.1051 22.5894 22.8473 22.8473C22.5894 23.1051 22.2397 23.25 21.875 23.25H19.125V21.875H21.875Z" fill="white"/>
</g>
<defs>
<clipPath id="clip0_1606_11565">
<rect width="16.5" height="16.5" fill="white" transform="translate(6.75 6.75)"/>
</clipPath>
</defs>
</svg>
