<svg width="20" height="20" viewBox="0 0 20 20" fill="none" xmlns="http://www.w3.org/2000/svg">
<path d="M11 6C11 4.93913 10.5786 3.92172 9.82843 3.17157C9.07828 2.42143 8.06087 2 7 2C5.93913 2 4.92172 2.42143 4.17157 3.17157C3.42143 3.92172 3 4.93913 3 6V14H0L4 18L8 14H5V6C5 5.46957 5.21071 4.96086 5.58579 4.58579C5.96086 4.21071 6.46957 4 7 4C7.53043 4 8.03914 4.21071 8.41421 4.58579C8.78929 4.96086 9 5.46957 9 6V14C9 15.0609 9.42143 16.0783 10.1716 16.8284C10.9217 17.5786 11.9391 18 13 18C14.0609 18 15.0783 17.5786 15.8284 16.8284C16.5786 16.0783 17 15.0609 17 14V6H20L16 2L12 6H15V14C15 14.5304 14.7893 15.0391 14.4142 15.4142C14.0391 15.7893 13.5304 16 13 16C12.4696 16 11.9609 15.7893 11.5858 15.4142C11.2107 15.0391 11 14.5304 11 14V6Z" fill="black"/>
</svg>
